HIERARCHY
ROOT Hips
{
	OFFSET -3.958830 18.904000 13.208200
	CHANNELS 6 Xposition Yposition Zposition Zrotation Yrotation Xrotation 
	JOINT LHipJoint
	{
		OFFSET 0.000000 0.000000 0.000000
		CHANNELS 3 Zrotation Yrotation Xrotation
		JOINT LeftUpLeg
		{
			OFFSET 1.800000 -1.400000 0.085000
			CHANNELS 3 Zrotation Yrotation Xrotation
			JOINT LeftLeg
			{
				OFFSET 2.215000 -6.000000 0.000000
				CHANNELS 3 Zrotation Yrotation Xrotation
				JOINT LeftFoot
				{
					OFFSET 2.500000 -6.900000 0.000000
					CHANNELS 3 Zrotation Yrotation Xrotation
					JOINT LeftToeBase
					{
						OFFSET 0.200000 -0.500000 1.950000
						CHANNELS 3 Zrotation Yrotation Xrotation
						End Site
						{
							OFFSET 0.000000 0.000000 0.000000
						}
					}
				}
			}
		}
	}
	JOINT RHipJoint
	{
		OFFSET 0.000000 0.000000 0.000000
		CHANNELS 3 Zrotation Yrotation Xrotation
		JOINT RightUpLeg
		{
			OFFSET -1.800000 -1.400000 0.085000
			CHANNELS 3 Zrotation Yrotation Xrotation
			JOINT RightLeg
			{
				OFFSET -2.215000 -6.000000 0.000000
				CHANNELS 3 Zrotation Yrotation Xrotation
				JOINT RightFoot
				{
					OFFSET -2.500000 -6.900000 0.000000
					CHANNELS 3 Zrotation Yrotation Xrotation
					JOINT RightToeBase
					{
						OFFSET -0.200000 -0.500000 1.950000
						CHANNELS 3 Zrotation Yrotation Xrotation
						End Site
						{
							OFFSET 0.000000 0.000000 0.000000
						}
					}
				}
			}
		}
	}
	JOINT LowerBack
	{
		OFFSET 0.000000 0.000000 0.000000
		CHANNELS 3 Zrotation Yrotation Xrotation
		JOINT Spine
		{
			OFFSET -0.087000 1.940000 -0.288900
			CHANNELS 3 Zrotation Yrotation Xrotation
			JOINT Spine1
			{
				OFFSET 0.000000 1.950000 0.060000
				CHANNELS 3 Zrotation Yrotation Xrotation
				JOINT Neck
				{
					OFFSET 0.000000 0.000000 0.000000
					CHANNELS 3 Zrotation Yrotation Xrotation
					JOINT Neck1
					{
						OFFSET 0.000000 1.600000 0.340000
						CHANNELS 3 Zrotation Yrotation Xrotation
						JOINT Head
						{
							OFFSET 0.000000 1.667000 -0.240000
							CHANNELS 3 Zrotation Yrotation Xrotation
							End Site
							{
								OFFSET 0.000000 0.000000 0.000000
							}
						}
					}
				}
				JOINT LeftShoulder
				{
					OFFSET 0.000000 0.000000 0.000000
					CHANNELS 3 Zrotation Yrotation Xrotation
					JOINT LeftArm
					{
						OFFSET 2.700000 1.550000 -0.730000
						CHANNELS 3 Zrotation Yrotation Xrotation
						JOINT LeftForeArm
						{
							OFFSET 5.450000 0.000000 0.000000
							CHANNELS 3 Zrotation Yrotation Xrotation
							JOINT LeftHand
							{
								OFFSET 3.450000 0.000000 0.000000
								CHANNELS 3 Zrotation Yrotation Xrotation
								JOINT LeftHandIndex1
								{
									OFFSET 0.750000 0.000000 0.000000
									CHANNELS 3 Zrotation Yrotation Xrotation
									End Site
									{
										OFFSET 0.000000 0.000000 0.000000
									}
								}
							}
						}
					}
				}
				JOINT RightShoulder
				{
					OFFSET 0.000000 0.000000 0.000000
					CHANNELS 3 Zrotation Yrotation Xrotation
					JOINT RightArm
					{
						OFFSET -2.700000 1.550000 -0.730000
						CHANNELS 3 Zrotation Yrotation Xrotation
						JOINT RightForeArm
						{
							OFFSET -5.450000 0.000000 0.000000
							CHANNELS 3 Zrotation Yrotation Xrotation
							JOINT RightHand
							{
								OFFSET -3.450000 0.000000 0.000000
								CHANNELS 3 Zrotation Yrotation Xrotation
								JOINT RightHandIndex1
								{
									OFFSET -0.750000 0.000000 0.000000
									CHANNELS 3 Zrotation Yrotation Xrotation
									End Site
									{
										OFFSET 0.000000 0.000000 0.000000
									}
								}
							}
						}
					}
				}
			}
		}
	}
}
MOTION
Frames: 9
Frame Time: 0.016667
1.142510 15.556930 -0.296660 2.872204 23.143948 4.571843 -15.121627 11.761014 3.533278 6.600519 -5.966244 -27.577401 -14.406808 12.292787 33.067163 -0.618200 8.076133 1.980486 0.700620 0.032980 0.483870 18.601846 -10.077619 3.081661 -4.534968 6.458605 -33.408141 6.957612 -9.062902 38.106082 -0.290668 -6.015449 2.553939 0.497380 0.675510 0.201770 -4.410570 -0.528717 -7.425189 15.379496 -2.998392 6.630051 -8.436813 -1.363044 5.823332 2.755251 -1.215615 -5.178157 -1.012754 -4.141192 18.255814 -5.933050 -4.429670 -3.184610 -28.753532 -4.970104 -0.398775 -34.992233 -2.799175 -2.638118 -23.926286 -23.849028 2.486221 -4.196645 3.094844 0.370000 0.615360 -0.625680 0.392770 22.680740 4.293597 4.183629 40.239689 -1.232013 -6.665966 68.790800 59.744591 30.506265 1.542184 -2.184400 -0.576460 0.459130 -0.019460 -0.469700 
1.144940 15.517620 -0.305060 2.645965 22.973880 3.759505 -15.111939 11.673909 3.681819 8.148973 -6.015658 -28.018008 -16.127936 13.553378 34.307016 -0.469830 8.599384 1.764581 0.689180 0.007990 0.516450 18.616921 -9.979597 3.111961 -4.368116 6.802703 -33.479759 6.885297 -9.404772 39.621161 -0.381462 -6.197902 2.482296 0.441820 0.593270 0.199820 -4.444140 -0.574884 -7.638809 16.147938 -3.348624 8.281756 -8.825779 -1.360474 5.337170 2.895056 -1.381307 -5.416199 -1.544364 -4.110498 19.576416 -6.121540 -4.172980 -4.347960 -29.016693 -5.358365 -0.266527 -34.850811 -2.584156 -2.925586 -23.616720 -23.759634 2.399780 -4.122686 3.061964 0.440710 0.543630 -0.555970 0.361050 22.532921 4.845032 4.471096 40.117177 -1.174470 -6.939810 71.511883 60.461170 32.519298 1.618961 -2.102723 -0.554410 0.431850 -0.024170 -0.490570 
1.153650 15.431830 -0.309480 2.396039 22.376888 2.616672 -15.107513 11.418282 3.991320 10.792950 -6.124903 -29.263494 -19.280283 16.188531 36.958975 -0.221472 9.709858 1.341401 0.687200 -0.016460 0.581700 18.659972 -9.733455 3.184393 -4.155063 7.660220 -34.263920 6.185816 -9.917540 43.251883 -0.545598 -6.677169 2.302301 0.397190 0.491900 0.185410 -4.478445 -0.604751 -8.004736 17.229865 -3.881511 10.887687 -9.530228 -1.249258 4.398553 3.155294 -1.594095 -5.554399 -2.179336 -3.913726 21.195504 -6.504210 -3.743610 -6.187870 -30.202598 -5.761395 -0.184556 -33.797696 -1.594355 -3.443363 -23.425328 -24.090871 2.377322 -4.026900 3.014653 0.540190 0.456630 -0.476650 0.312270 22.998573 5.494242 4.636310 38.923034 -1.016464 -7.039001 77.204726 60.844443 36.293003 1.718054 -1.984865 -0.551450 0.419920 -0.026920 -0.534610 
1.162380 15.335950 -0.305380 2.015382 21.413698 1.283733 -15.102034 11.056445 4.373765 14.285331 -5.841293 -30.719776 -23.246424 19.560954 39.364635 0.094209 10.955666 0.888312 0.694130 -0.015550 0.618410 18.727251 -9.415508 3.271031 -3.782796 8.823652 -35.111632 5.336661 -10.487171 47.582928 -0.746127 -7.312195 2.086213 0.363560 0.399800 0.181890 -4.530023 -0.568442 -8.407629 18.711651 -4.499734 13.796826 -10.538052 -1.011410 3.222498 3.392184 -2.023536 -5.572359 -3.152595 -3.549060 22.923890 -6.724060 -3.492900 -7.875080 -31.870947 -5.883006 -0.235280 -32.454420 -0.212137 -4.111971 -23.316571 -25.245145 2.551647 -3.925174 3.017224 0.611810 0.381540 -0.406020 0.277230 23.935002 6.030573 4.749902 37.626216 -1.166947 -7.262153 84.000396 61.034487 40.911910 1.810848 -1.880517 -0.526360 0.395390 -0.029380 -0.559790 
1.172240 15.244590 -0.301940 1.613635 20.584638 -0.314494 -15.115722 10.711109 4.794564 17.907199 -5.324226 -32.273212 -26.704734 23.114535 41.996335 0.450010 12.126155 0.512428 0.699180 -0.011200 0.657200 18.778820 -9.091358 3.328910 -3.515015 9.874376 -35.580195 4.667844 -11.188974 51.720395 -0.965020 -7.961509 1.893299 0.317710 0.315090 0.171920 -4.539204 -0.582190 -8.805116 20.348716 -5.337958 17.102678 -11.475358 -0.766858 1.816265 3.685105 -2.621211 -5.814393 -4.518953 -3.176664 25.053702 -7.427530 -3.195570 -9.295460 -33.389575 -6.185741 -0.178808 -31.536208 1.034048 -4.827016 -22.963090 -26.803853 2.795474 -3.805156 3.012220 0.675800 0.307320 -0.327700 0.262640 24.611227 7.007840 5.096783 36.404955 -1.395284 -7.717877 91.787061 61.232082 46.649517 1.916376 -1.760607 -0.496590 0.379710 -0.056550 -0.570770 
1.179920 15.162230 -0.305520 1.425363 19.728765 -1.602115 -15.151643 10.308420 5.273072 21.722419 -4.603641 -34.227811 -30.355330 26.993639 44.397463 0.795563 13.193356 0.187728 0.719990 0.016300 0.695720 18.829091 -8.721602 3.374673 -3.427960 10.906149 -36.262211 4.166311 -11.925099 55.467131 -1.175897 -8.568493 1.710471 0.291460 0.227760 0.157670 -4.508788 -0.598250 -9.182793 21.675083 -6.245389 20.331419 -12.386552 -0.445000 0.315764 3.936486 -3.233928 -6.002619 -5.950626 -2.888562 27.128918 -7.778310 -3.246210 -10.882480 -34.770729 -6.443206 -0.295423 -30.408569 1.688963 -5.136329 -22.494203 -26.776602 2.743578 -3.687134 3.007171 0.730800 0.228560 -0.253490 0.250840 25.257787 7.952243 5.425646 35.610007 -1.780929 -8.407233 95.895550 61.265375 49.849028 1.982204 -1.684815 -0.462900 0.365050 -0.087140 -0.576870 
1.176070 15.091540 -0.311660 1.952952 19.053472 -2.931146 -15.218846 9.989020 5.766833 25.139437 -3.767096 -36.254285 -33.579087 31.043983 47.015847 1.093807 14.137161 -0.088985 0.753760 0.040070 0.747900 18.838551 -8.386894 3.359568 -3.962072 11.655962 -36.414962 3.827513 -12.678781 58.691463 -1.368951 -9.115486 1.532019 0.276400 0.137790 0.153070 -4.388946 -0.727754 -9.525830 21.690127 -7.118585 24.202964 -12.866573 -0.130295 -1.540828 4.021318 -3.851751 -6.143798 -7.500501 -2.443947 29.239021 -7.892390 -3.442200 -12.747870 -36.602511 -6.777839 -0.376185 -29.016012 2.772894 -5.293526 -21.347416 -24.940093 2.144597 -3.561533 3.005708 0.800540 0.145280 -0.181910 0.234330 26.757513 9.010753 5.606533 33.781784 -2.333078 -9.134163 98.711682 61.108275 52.071839 2.017739 -1.641912 -0.437820 0.346990 -0.110910 -0.594310 
1.161450 15.031120 -0.315530 2.322746 18.540760 -4.056601 -15.286257 9.647580 6.249126 28.760620 -2.590210 -38.488800 -35.956514 34.901682 49.603598 1.367127 14.847749 -0.268107 0.773410 0.069660 0.762860 18.860898 -8.073227 3.327897 -4.329412 12.332685 -36.490974 3.659505 -13.412142 61.275214 -1.536322 -9.559765 1.407200 0.255480 0.076870 0.139610 -4.295751 -0.791822 -9.823813 21.713186 -8.021704 27.582363 -13.325761 0.197186 -3.123124 4.029457 -4.630309 -6.528061 -9.407583 -1.747493 31.281505 -7.309500 -3.814500 -14.381760 -37.628524 -7.115963 -0.277280 -28.577487 3.963447 -5.700445 -19.979017 -24.183849 1.722229 -3.446737 2.996760 0.845900 0.071010 -0.120080 0.235290 27.668966 10.218372 5.938420 33.189020 -2.811458 -9.944631 99.143228 61.498478 52.648676 2.068385 -1.586721 -0.405680 0.344320 -0.135280 -0.583430 
1.147640 14.991670 -0.312190 2.896765 18.268688 -5.280382 -15.339007 9.443860 6.602455 31.585088 -1.550519 -39.930556 -36.722402 37.518247 51.957416 1.558446 15.224153 -0.363776 0.825010 0.132670 0.795850 18.866857 -7.887026 3.263662 -4.996656 12.692621 -35.942761 3.864100 -14.261990 63.241925 -1.693388 -9.928643 1.309920 0.244780 -0.012450 0.121660 -4.220781 -0.858864 -10.034896 21.449060 -8.999394 30.890028 -13.767575 0.376770 -4.762313 4.000998 -5.510595 -7.095811 -11.703706 -0.900878 33.575913 -6.387620 -4.246950 -16.303380 -38.622877 -7.630497 -0.028293 -28.347647 5.396786 -6.165943 -18.378261 -23.012532 1.197417 -3.296346 3.010047 0.890920 -0.022600 -0.048410 0.244030 28.688355 11.650414 6.367762 33.093825 -3.241750 -10.614812 94.811373 61.645584 49.058827 2.095327 -1.608897 -0.354170 0.322410 -0.185940 -0.572550 
